<svg version="1" xmlns="http://www.w3.org/2000/svg" width="1440" height="1440" viewBox="0 0 1080.000000 1080.000000"><path d="M745.5 121.5c-43.7 4.4-86.8 25.6-117.1 57.7-34.2 36.4-52.4 82.1-52.4 132 0 82.6 51.8 154.8 129.9 180.9 12.3 4.1 16.5 5.1 31.6 7.5 36.7 5.8 76.6-.1 111.1-16.6 61.8-29.4 103.5-91.4 107.2-159.3 3-55.8-14.9-105.4-52.2-144.5-32.7-34.2-75.2-54.4-121.9-58.2-15.4-1.2-19.4-1.2-36.2.5zm66.9 63.9c15.5 5.2 28 13.1 38.9 24.6 9.6 10 14.2 18.9 14.2 27.5-.1 10.3-5 14.6-18.9 16.5-6.3.9-8.9.8-17.2-.9-11.9-2.5-30.9-11.4-39.8-18.9-12.6-10.5-20.6-23-21.4-33.5-.7-9.5 2.6-14.2 12.1-17.3 6.5-2.2 22.7-1.1 32.1 2zM143.6 143.8c-15.7 38.9-19.8 49.9-23 61.7-8.3 29.9-7.1 50.6 4.2 73.2 5.5 11.1 12.2 20.2 26.2 35.7 20.8 22.9 28 41.9 28 74.1 0 27.7-8.2 62.2-22.5 94.7-2.5 5.6-4.5 10.6-4.5 11 0 .8 7.3 4.8 8.9 4.8.5 0 2.9-4.6 5.4-10.3 15.3-35.1 22.5-64.3 23.4-95.4 1.2-37.7-7.1-61.6-29.3-85.4-14.4-15.3-20.3-23.3-26.3-35.7-6.2-12.6-7.6-18.8-7.5-33.7.1-20.3 2.6-28.7 23.8-81.4 5.8-14.5 10.7-27 10.8-27.8.2-.9-1.6-2.2-4.7-3.4-2.7-1-5-1.9-5-1.9s-3.6 8.9-7.9 19.8z"/><path d="M183.3 125.8c-.3.9-6.1 15.4-12.8 32.2-19.5 48.6-23 62-22.3 85 .4 11.8.9 14.7 3.6 22.7 5.4 15.9 13.8 29 29.2 45.8 5 5.5 11.2 12.8 13.6 16.2 19.3 26.7 22.3 65.7 9 114.3-4 14.5-10.2 31.9-15.7 43.9-2.2 4.6-3.8 8.5-3.7 8.6 1.6 1.4 9.1 4.5 9.7 4 1.4-.8 9.7-20.5 14.2-33.3 5.1-14.8 10.2-34.6 12.5-48.7 2.6-15.9 2.5-43.6-.3-56.5-4.6-21.1-11.8-34.6-28.8-53.5-13.9-15.4-18.9-22.3-24.4-33-5.6-11.1-8.2-21.6-8.2-34 0-19.1 3.4-31 22.6-79 7-17.3 12.4-31.9 12.1-32.4-.3-.5-2.6-1.6-5.1-2.5-4.3-1.4-4.6-1.4-5.2.2z"/><path d="M208.6 143.8c-21.1 52.5-25 64.4-27.6 82.7-2.5 17.7.5 35.8 8.6 51.8 5.6 11.1 11.3 19.1 22.2 31.3 17.3 19.1 21.7 25.9 26.8 40.7 11.1 32.6 5.2 80.9-16.2 130.7-3 7-5.4 13-5.4 13.3 0 .7 7.4 4.7 8.8 4.7 2.4 0 15.4-33.1 20.8-52.9 5.5-19.9 7.6-33.6 8.1-52.8.8-24.9-1.8-40-9.7-56.9-5.1-11-10.1-18.2-21-30-35.9-38.9-40.9-65.2-22-115.4 2.6-6.9 8.2-20.9 12.3-31.2 4.2-10.2 8.8-21.6 10.1-25.2l2.5-6.6-3.3-1.4c-7.5-3.1-6.4-4.4-15 17.2z"/><path d="M248.3 125.8c-.3.9-6.1 15.4-12.8 32.2-19.6 48.6-23.1 62.1-22.3 85 .5 11.7 1 14.7 3.6 22.7 5.4 16 13.7 29 29.7 46.3 5.3 5.8 11.5 13.1 13.7 16.4 18.4 26.7 21.5 63.5 9.3 110.4-4 15.2-10.9 34.6-16.6 47-2.2 4.7-3.8 8.6-3.7 8.7.2.2 2.3 1.3 4.7 2.5 5.5 2.8 5.2 3.1 12.1-13.2 9.2-21.9 15.9-44.8 19.6-67.5 2.7-15.8 2.5-43.5-.3-56.3-4.4-20.2-12-34.8-26.5-50.9-26.1-29-33.4-43.1-34.5-66.6-.9-20.6 2-31.6 22.2-82 7-17.3 12.4-31.9 12.1-32.4-.3-.5-2.6-1.6-5.1-2.5-4.3-1.4-4.6-1.4-5.2.2z"/><path d="M273.6 143.8c-20.8 51.9-24.2 61.9-27.1 79.7-3.3 20.3-.7 37.4 8.5 55.6 5.5 10.8 11.5 19.1 24.2 33.1 6.1 6.8 12.4 14.2 14 16.6 4.7 6.8 10.4 19.8 12.9 29.7 2.2 8.1 2.4 11.1 2.4 30.5-.1 19.6-.3 22.7-2.8 34.5-1.6 7.1-4.2 17.7-5.9 23.5-3.1 11-12.1 34.7-15.7 41.8-1.2 2.3-2.1 4.6-2.1 5.1 0 1 7.1 5.1 8.8 5.1 2.6 0 16.2-35.3 21.6-56.2 5.3-20.2 6.7-29.7 7.3-48.9.8-25.4-1.8-40.7-9.6-57.5-5.2-11.1-10.2-18.2-21.1-30-35.8-38.8-40.9-65.3-22-115.4 2.6-6.9 8.2-20.9 12.3-31.2 4.2-10.2 8.8-21.6 10.1-25.2l2.5-6.6-3.3-1.4c-7.5-3.1-6.4-4.4-15 17.2z"/><path d="M304.6 143.8c-21.1 52.5-25 64.4-27.6 82.7-2.5 17.7.5 35.8 8.6 51.8 5.6 11.1 11.3 19.1 22.2 31.3 17.3 19.1 21.7 25.9 26.8 40.7 7.5 21.9 7.3 52.4-.6 84.3-3.5 14.6-10.4 34.8-16.5 48.6-2.5 5.6-4.5 10.6-4.5 11 0 .8 7.3 4.8 8.8 4.8 2.1 0 14.4-30.7 19.6-48.7 9-31.1 11.9-62.4 8.1-85.8-3.7-23-11.7-38.8-29.5-58.1-35.9-38.9-40.9-65.2-22-115.4 2.6-6.9 8.4-21.5 12.8-32.5s9-22.4 10.1-25.2l2.1-5.3-3.4-1.4c-7.5-3.1-6.4-4.4-15 17.2z"/><path d="M344.3 125.8c-.3.9-6.1 15.4-12.8 32.2-19.5 48.6-23 62-22.3 85 .4 11.8.9 14.7 3.6 22.7 5.4 15.9 13.8 29 29.2 45.8 5 5.5 11.2 12.8 13.6 16.2 15.5 21.5 20.7 52.2 14.9 88.3-3.3 20.3-12.6 50.3-21.6 69.8-2.2 4.7-3.8 8.6-3.7 8.7 1.6 1.4 9.1 4.5 9.7 4 1.5-.8 9.9-21 14.7-34.9 5.3-15.2 9.5-32 12-47.3 2.7-15.8 2.5-43.5-.3-56.3-4.6-21.1-11.9-34.6-28.8-53.5-13.8-15.4-19-22.4-24.4-33.1-5.6-11.1-8.1-21.5-8.1-34 0-19.4 3.3-30.8 22.5-78.9 7-17.3 12.4-31.9 12.1-32.4-.3-.5-2.6-1.6-5.1-2.5-4.3-1.4-4.6-1.4-5.2.2z"/><path d="M369.6 143.8c-20.8 51.9-24.2 61.9-27.1 79.7-5.1 31.2 3.9 56.8 30.3 86.1 4.8 5.3 10.6 11.9 13 14.7 5.8 6.9 13.5 23.1 16.4 34.2 2.1 8.1 2.3 11.1 2.2 30.5 0 19.5-.3 22.7-2.8 34.5-1.5 7.1-4.1 17.7-5.8 23.5-3.1 11-12.1 34.7-15.7 41.8-1.2 2.3-2.1 4.6-2.1 5.1 0 1 7.1 5.1 8.8 5.1 2.6 0 16.2-35.3 21.6-56.2 5.3-20.2 6.7-29.7 7.3-48.9.8-25.4-1.8-40.7-9.6-57.5-5.2-11.1-10.2-18.2-21.1-30-35.8-38.8-40.9-65.3-22-115.4 2.6-6.9 8.2-20.9 12.3-31.2 4.2-10.2 8.8-21.6 10.1-25.2l2.5-6.6-3.3-1.4c-7.5-3.1-6.4-4.4-15 17.2z"/><path d="M409.3 125.8c-.3.9-6.2 15.6-13 32.5-19.2 47.9-22.9 62.2-22 85.2.4 11.1.9 14.4 3.5 22.2 5.5 16.1 13.9 29.2 30.4 47 18.6 20.2 26 35.6 28.9 60.6 3.4 29.6-5 71.3-22.2 110.1-2.7 6.1-4.7 11.1-4.6 11.2.1.1 2.2 1.2 4.6 2.4 5.5 2.8 5.2 3.1 12-13.1 20.3-48.1 26.9-95 18.1-129.5-4.6-17.8-11.8-30.5-26.4-46.8-25.1-27.8-32.2-41.8-33.3-65.2-.9-20.3 1.3-28.8 20.9-78.1 7.7-19.4 13.7-35.7 13.4-36.2-.3-.5-2.6-1.6-5.1-2.5-4.3-1.4-4.6-1.4-5.2.2z"/><path d="M428.3 159.8c-21.1 53.1-25 70.6-20.9 93.7 3.6 20.4 12.3 36 32.6 58.5 6.2 6.9 12.6 14.4 14.2 16.8 4.7 6.8 10.4 19.8 12.9 29.7 2.2 8.1 2.4 11.1 2.4 30.5-.1 19.6-.3 22.7-2.8 34.5-4.8 22.3-14.1 50.6-21.6 65.3-1.1 2.2-2.1 4.6-2.1 5.1 0 1 7.1 5.1 8.8 5.1.5 0 2.8-4 5-8.9 10-21.8 19.4-53.3 22.6-75.8 2-14.2 2.1-37.9.1-50.2-3.7-22.7-11.7-38.4-29.5-57.7-26.1-28.2-35.3-50-32.2-76.1 2.1-17.6 4.7-26.1 21-66.3 6.3-15.7 12-30.2 12.8-32.3l1.3-3.7-3.3-1.4c-7.6-3.2-5.7-6-21.3 33.2z"/><path d="M465.6 143.8c-20.8 51.9-24.2 61.9-27.1 79.7-3.3 20.4-.7 37.5 8.6 55.9 5.2 10.3 11 18.4 21.7 30.2 13.6 15 16.9 19.3 21.1 27.4 8.8 17 11.7 32.2 10.8 57.4-.7 18.1-2.2 27.5-7.7 48.4-3.2 11.9-12.3 36.8-16.6 45.4-1.3 2.6-2.4 5.2-2.4 5.7 0 1 7.1 5.1 8.8 5.1 2.6 0 16.2-35.3 21.6-56.2 5.3-20.2 6.7-29.7 7.3-48.9.8-25.4-1.8-40.7-9.6-57.5-5.2-11-10.2-18.2-21.1-30-35.9-38.9-40.9-65.2-22-115.4 2.6-6.9 8.2-20.9 12.3-31.2 4.2-10.2 8.8-21.6 10.1-25.2l2.5-6.6-3.3-1.4c-7.5-3.1-6.4-4.4-15 17.2zM119.5 575.2c-.3.7-.4 87.5-.3 192.8l.3 191.5 193.9.3 193.9.2-.6-130.7c-.4-71.8-.7-158.7-.7-193V574H313c-153.5 0-193.2.3-193.5 1.2zM589.1 575.5c-8.1 2.6-13.1 9.4-13.1 17.8 0 6.2 2.2 10.9 7.1 15 4.7 4.1 11.3 5.5 17.5 3.8 3.6-1 4-.9 6 1.7 1.2 1.5 10.9 13.5 21.6 26.7l19.4 24-1.5 3c-2.3 4.5-2 12.4.7 16.9 1.2 2 2.2 4.1 2.2 4.6 0 .4-8.9 14.4-19.8 31.1l-19.8 30.3-6.1-.3c-9.3-.4-15.5 3.3-18.8 11.2-6.9 16.6 11.9 33.1 27.2 23.7 7.8-4.7 11.3-15.2 7.9-23.4l-1.6-3.8 20.7-31.9c11.5-17.5 21.3-31.9 22-31.9 1.5 0 1.1-2.6 8.8 53.8l6.5 47.3-3.4 3.3c-2 1.8-4 4.6-4.6 6.2-1.5 3.8-1.5 10.5 0 14.6l1.2 3.4-27.2 36.9c-15 20.4-27.7 36.8-28.4 36.6-.6-.2-3.3-.4-6.1-.5-15.6-.1-23.8 17.5-13.8 29.5 3.6 4.2 8 6.2 13.8 6.2 7.6 0 14-4.1 16.4-10.6 1.4-3.5 1.4-12.2.2-14.6-.8-1.4 4.1-8.8 26.5-39.2 15.2-20.6 28-37.4 28.5-37.3.5.1 3.6.2 6.8.2l5.9.2 33 49.3 33 49.3-2.4 3.9c-4.3 7.1-2.9 17 3.2 22.7 5.7 5.3 13.1 6.2 20.4 2.5 15.8-7.9 11.5-31.8-5.9-33.5l-5.1-.5-33.7-50.3c-18.5-27.7-33.3-50.7-33-51.1.4-.4 28 5.3 61.2 12.7l60.5 13.4v2.7c0 6.4 4.6 12.8 11.5 16 5.3 2.5 10.1 2.4 15.5-.4l4.5-2.2 35 25.8 35 25.8-.3 3.8c-.6 6.3 1.4 11.5 5.8 15.5 4.7 4.2 7.3 5 14.4 4.4 9.3-.8 15.6-7.7 15.6-17.2 0-8.1-3.3-13.4-10.5-16.7-4.9-2.3-8.1-2.4-13.9-.4l-4.5 1.5-35.1-25.9-35.1-25.9-.3-6.4c-.2-7.9-3-12.8-9.2-16.4-3.9-2.3-5.3-2.6-10.9-2.2-5.5.3-7 .9-10.6 3.8l-4.2 3.3-60.2-13.3-60.2-13.3-1.6-4.8c-2-5.6-7-10.3-12.7-12-3.3-1-4.1-1.7-4.5-4.3-.3-1.7-3.2-22.9-6.5-47.1-3.4-24.2-6.3-45.4-6.6-47.1-.5-2.6-.1-3.4 2.2-4.9l2.8-1.8 49.8 24.9 49.8 24.9v4.5c0 13.5 15.7 22.2 28.1 15.7l4.4-2.3 47.8 22 47.9 22.1.3 4.6c1.1 19.1 27.1 24.8 35.7 7.8 1.1-2 1.8-5.6 1.8-8.8 0-15.3-16.6-24.3-29.2-15.8l-3.3 2.3-47.8-21.9c-42.5-19.6-47.7-22.2-47.7-24.2 0-2.1 1.9-2.9 21.8-9.4 11.9-3.9 35.3-11.5 51.9-17l30.2-9.8 2.3 2.4c3.6 3.9 7.8 5.6 13.8 5.6 8.4 0 14.2-3.8 17.5-11.5 3.2-7.9.7-17.2-6.1-22.4-3.4-2.6-4.5-2.9-11.4-2.9s-8 .3-11.4 2.9c-3.9 2.9-7.5 9.3-7.6 13.2 0 1.7-1.7 2.6-11.2 5.6-6.2 1.9-29.4 9.5-51.6 16.8l-40.3 13.2-2.5-2.7c-3.1-3.4-10-6.5-14.5-6.5-2.2 0-6 1.2-9.3 3l-5.7 2.9-49.3-24.6-49.4-24.7-.4-5.3c-.9-10.2-9-16.7-20.5-16.5h-6.2l-18.3-22.6c-10.1-12.4-20-24.7-22-27.2s-3.4-5.1-3-5.7c.5-.7 18.2-.4 59.2 1.2 53.1 2.1 58.5 2.4 59.5 4 4 6.9 9.7 10.5 16.4 10.5 5.9 0 10.2-2.1 14.3-6.9l3.5-4.2 13.4 2c7.4 1.1 27.6 4.1 44.9 6.6 17.3 2.5 32.5 4.7 33.6 5 1.3.3 2.4 1.5 2.8 2.9.9 3.7 5.6 8.7 10.1 10.7 5.6 2.6 11.2 2.4 17.1-.6 6.3-3.2 9.6-8 10.2-15 1.2-14.3-12.6-24.3-26.3-19.1-4 1.6-10.5 7.4-10.5 9.5 0 .4-5.5 0-12.2-1-26.5-4-81.1-11.9-81.7-11.9-.4 0-1.2-2-1.9-4.4-1.4-5.3-6.4-10-12.3-11.6-8.8-2.4-17.3 1.7-21.1 10l-2.3 5.1-6.5-.6c-3.6-.3-27.2-1.2-52.5-2-58.2-2-56.2-1.8-57.9-5.8-3.8-8.8-13.9-13.3-23.5-10.2z"/></svg>